# xmcd CD database file
#
# Track frame offsets:
#	150
#	13623
#	28003
#	37476
#	50580
#	62400
#	79143
#	92806
#	106466
#	118844
#	134625
#	145478
#	158844
#	166633
#	179792
#
# Disc length: 2554 seconds
#
# Revision: 0
# Processed by: cddbd v1.5.2PL0 Copyright (c) Steve Scherf et al.
# Submitted via: CDex 1.70beta2
#
DISCID=d909f80f
DTITLE=歌のすけ楽団 - スウィートwarabeうた
DYEAR=2011
DGENRE=Jazz
TTITLE0=アイアイ
TTITLE1=春が来た
TTITLE2=森の熊さん
TTITLE3=あめふり
TTITLE4=メリーさんの羊
TTITLE5=ちょうちょう
TTITLE6=あんたがたどこさ
TTITLE7=むすんでひらいて
TTITLE8=証城寺の狸囃子
TTITLE9=シャボン玉
TTITLE10=うみ
TTITLE11=かたつむり
TTITLE12=はとぽっぽ
TTITLE13=ぞうさん
TTITLE14=かえるのうた
EXTD=YEAR: 2011
EXTT0=
EXTT1=
EXTT2=
EXTT3=
EXTT4=
EXTT5=
EXTT6=
EXTT7=
EXTT8=
EXTT9=
EXTT10=
EXTT11=
EXTT12=
EXTT13=
EXTT14=
PLAYORDER=
